<?xml version="1.0" encoding="iso-8859-1"?>
<!-- Generator: Adobe Illustrator 19.0.0, SVG Export Plug-In . SVG Version: 6.00 Build 0)  -->
<svg version="1.1" id="Layer_1" xmlns="http://www.w3.org/2000/svg" xmlns:xlink="http://www.w3.org/1999/xlink" x="0px" y="0px"
	 viewBox="0 0 485.449 485.449" style="enable-background:new 0 0 485.449 485.449;" xml:space="preserve">
<path d="M470.225,385.449h-25v-60.208l-30-30v-75.607c0-78.331-52.922-146.484-127.5-166.558V45c0-24.813-20.187-45-45-45
	c-24.813,0-45,20.187-45,45v8.076c-74.579,20.074-127.5,88.227-127.5,166.558v75.607l-30,30v60.208h-25v30h143.852
	c7.108,39.736,41.898,70,83.648,70s76.539-30.264,83.648-70h143.852V385.449z M70.225,337.668l30-30v-88.034
	c0-68.176,48.508-127.015,115.341-139.905l12.159-2.345V45c0-8.271,6.729-15,15-15c8.271,0,15,6.729,15,15v32.383l12.159,2.345
	c66.833,12.89,115.341,71.729,115.341,139.905v88.034l30,30v47.781h-345V337.668z M242.725,455.449
	c-25.127,0-46.356-16.943-52.904-40h105.807C289.081,438.506,267.851,455.449,242.725,455.449z"/>
<g>
</g>
<g>
</g>
<g>
</g>
<g>
</g>
<g>
</g>
<g>
</g>
<g>
</g>
<g>
</g>
<g>
</g>
<g>
</g>
<g>
</g>
<g>
</g>
<g>
</g>
<g>
</g>
<g>
</g>
</svg>
